<svg id="Capa_1" enable-background="new 0 0 512 512" height="512" viewBox="0 0 512 512" width="512" xmlns="http://www.w3.org/2000/svg"><g><g><g><g><g><g><g><g><circle cx="256" cy="256" fill="#7982ed" r="256"/></g></g></g></g></g></g></g><path d="m512 256c0-14.254-1.165-28.235-3.405-41.854l-107.213-107.214-213.26 184.643-77.503 113.492 103.527 103.528c13.619 2.24 27.601 3.405 41.854 3.405 141.385 0 256-114.615 256-256z" fill="#4d56b2"/><g><path d="m401.382 332.22h-216.657l-74.107 72.848v-298.136h290.764z" fill="#78d464"/></g><g><path d="m256 106.932h145.382v225.288h-145.382z" fill="#6cbd5a"/></g><g><circle cx="256" cy="219.939" fill="#fff" r="87.63"/></g><g><path d="m256 132.31v175.259c48.396 0 87.63-39.233 87.63-87.63s-39.234-87.629-87.63-87.629z" fill="#e9ecf4"/></g><g><path d="m234.816 273.237-43.178-43.179 21.213-21.213 21.965 21.965 64.333-64.333 21.213 21.213z" fill="#78d464"/></g><g><path d="m299.149 166.477-43.149 43.149v42.426l64.362-64.362z" fill="#6cbd5a"/></g></g></svg>