<svg id="Capa_1" enable-background="new 0 0 512 512" height="512" viewBox="0 0 512 512" width="512" xmlns="http://www.w3.org/2000/svg"><g><g><g><g><g><g><g><circle cx="256" cy="256" fill="#00c8c8" r="256"/></g></g></g></g></g></g><path d="m512 256c0-13.225-1.003-26.216-2.937-38.901l-124.918-124.918-21.587 21.719-45.675-45.675-189.028 351.594 89.244 89.244c12.685 1.934 25.676 2.937 38.901 2.937 141.385 0 256-114.615 256-256z" fill="#00a0aa"/><g><path d="m127.855 92.181h256.29v327.639h-256.29z" fill="#ffce00"/></g><g><path d="m255.644 92.181h128.501v327.639h-128.501z" fill="#fdba12"/></g><g><path d="m150.097 112.317h211.806v287.366h-211.806z" fill="#fff"/></g><g><path d="m255.644 112.317h106.259v287.366h-106.259z" fill="#e9edf5"/></g><g><path d="m280.669 137.046h-49.338c-19.969 0-36.214-16.246-36.214-36.214v-32.607h121.766v32.607c0 19.968-16.245 36.214-36.214 36.214zm-55.552-38.821v2.607c0 3.426 2.787 6.214 6.214 6.214h49.338c3.427 0 6.214-2.788 6.214-6.214v-2.607z" fill="#555a66"/></g><g><path d="m255.644 68.225v30h31.239v2.607c0 3.427-2.787 6.214-6.214 6.214h-25.025v30h25.025c19.969 0 36.214-16.246 36.214-36.214v-32.607z" fill="#333940"/></g><g><g><path d="m172.46 157.578h100.107v30h-100.107z" fill="#dce1eb"/></g><g><path d="m255.644 157.578h16.923v30h-16.923z" fill="#bec3d2"/></g><g><path d="m297.241 157.578h42.299v30h-42.299z" fill="#bec3d2"/></g></g><g><g><path d="m172.46 213.193h100.107v30h-100.107z" fill="#dce1eb"/></g><g><path d="m255.644 213.193h16.923v30h-16.923z" fill="#bec3d2"/></g><g><path d="m297.241 213.193h42.299v30h-42.299z" fill="#bec3d2"/></g></g><g><g><path d="m172.46 268.807h100.107v30h-100.107z" fill="#dce1eb"/></g><g><path d="m255.644 268.807h16.923v30h-16.923z" fill="#bec3d2"/></g><g><path d="m297.241 268.807h42.299v30h-42.299z" fill="#bec3d2"/></g></g><g><g><path d="m172.46 324.422h100.107v30h-100.107z" fill="#dce1eb"/></g><g><path d="m255.644 324.422h16.923v30h-16.923z" fill="#bec3d2"/></g><g><path d="m297.241 324.422h42.299v30h-42.299z" fill="#bec3d2"/></g></g><g><ellipse cx="370.646" cy="312.343" fill="#ff7045" rx="72.489" ry="72.489" transform="matrix(.707 -.707 .707 .707 -112.3 353.569)"/></g><g><path d="m443.135 312.343c0-40.001-32.4-72.431-72.388-72.486v144.972c39.987-.055 72.388-32.486 72.388-72.486z" fill="#de4726"/></g><g><path d="m365.472 356.945c-13.91-1.312-24.015-6.299-31.494-13.516l11.941-16.928c6.299 6.299 16.01 11.548 27.951 11.548 7.742 0 12.467-3.018 12.467-7.217 0-11.942-49.604-2.362-49.604-36.087 0-13.254 10.104-25.195 28.738-27.426v-12.335h14.566v12.466c10.498 1.444 19.684 5.38 27.163 11.679l-12.335 16.141c-7.349-6.036-16.928-9.054-25.589-9.054-6.562 0-9.448 2.625-9.448 6.299 0 11.154 49.472 3.018 49.472 35.562 0 15.747-10.366 26.77-29.263 28.87v11.941h-14.566v-11.943z" fill="#fff"/></g><g fill="#e9edf5"><path d="m394.866 295.268 12.335-16.141c-7.479-6.299-16.665-10.236-27.163-11.679v-12.466h-9.292v31.264c8.263.32 17.185 3.325 24.12 9.022z"/><path d="m370.747 299.016v24.063c8.67 1.833 15.59 3.292 15.59 7.752 0 4.199-4.725 7.218-12.467 7.218-1.061 0-2.098-.055-3.124-.135v30.973h9.292v-11.941c18.896-2.1 29.263-13.123 29.263-28.87 0-22.663-23.986-25.599-38.554-29.06z"/></g></g></svg>